<svg width="41" height="40" viewBox="0 0 41 40" fill="none" xmlns="http://www.w3.org/2000/svg"><path d="M41 0H0v40h41V0z" fill="#2DC6ED"/><path d="M13.3 13.1c0-1.1.3-2 1-2.5.7-.6 1.8-.7 2.4-.7v2.7l.2.1c.9.5 1.9.7 2.9.8l-1 2a.4.4 0 00.2.6h.3l.2-.2.9-1.7 1.1 1.7.2.2a.4.4 0 00.5-.2.4.4 0 000-.2v-.2l-1.3-2c1.1 0 2.3-.4 3.2-1a.4.4 0 00.2-.3V10c.6 0 1.7 0 2.4.7.7.5 1 1.4 1 2.5 0 1.4-1 2.2-1.3 2.5H24.5l-.1.4v4.6h-7.8V16v-.3l-.4-.1h-1.6a3.3 3.3 0 01-1.3-2.5zm17.1 17H10.6l6-8.7h7.8l6 8.7z" fill="#051212"/></svg>