<?xml version="1.0" standalone="no"?>
<!DOCTYPE svg PUBLIC "-//W3C//DTD SVG 20010904//EN"
 "http://www.w3.org/TR/2001/REC-SVG-20010904/DTD/svg10.dtd">
<svg version="1.0" xmlns="http://www.w3.org/2000/svg"
 width="460.000000pt" height="542.000000pt" viewBox="0 0 460.000000 542.000000"
 preserveAspectRatio="xMidYMid meet">

<g transform="translate(0.000000,542.000000) scale(0.100000,-0.100000)"
fill="#000000" stroke="none">
<path d="M1663 5188 c-19 -21 -21 -38 -25 -218 -5 -222 -1 -207 -110 -412
-147 -276 -135 -353 127 -803 48 -82 95 -162 104 -177 l16 -28 527 0 527 0 17
33 c9 17 22 39 29 47 7 8 27 42 45 75 17 33 49 89 70 125 68 118 137 254 153
305 40 122 30 236 -29 347 -130 245 -135 257 -145 352 -5 50 -9 146 -9 214 0
108 -2 124 -20 142 -30 30 -80 26 -113 -8 l-27 -28 0 -182 0 -182 -51 -102
c-66 -132 -148 -217 -263 -274 -78 -38 -83 -39 -186 -39 -103 0 -108 1 -184
39 -115 56 -198 142 -264 273 l-52 101 0 184 0 184 -28 27 c-35 34 -80 36
-109 5z"/>
<path d="M1747 3338 c-10 -18 -25 -46 -35 -63 -10 -16 -56 -97 -102 -180 -45
-82 -90 -161 -100 -175 -10 -14 -66 -113 -125 -220 -59 -107 -113 -202 -120
-210 -7 -8 -43 -73 -81 -145 -38 -71 -88 -166 -111 -210 -58 -109 -169 -337
-200 -410 -14 -33 -41 -94 -60 -135 -97 -208 -204 -562 -248 -820 -15 -88 -20
-216 -9 -245 13 -34 150 -83 389 -140 83 -20 175 -42 205 -50 90 -23 303 -62
490 -90 159 -24 212 -27 575 -32 416 -6 497 -2 780 38 212 30 388 65 625 125
260 65 392 108 415 134 42 47 -6 377 -98 675 -63 203 -116 335 -269 670 -59
129 -262 519 -323 620 -23 39 -79 138 -125 220 -46 83 -100 177 -121 210 -20
33 -74 128 -119 210 -45 83 -96 174 -113 203 l-31 52 -536 0 -536 0 -17 -32z"/>
</g>
</svg>
