<svg width="75" height="75" viewBox="0 0 75 75" fill="none" xmlns="http://www.w3.org/2000/svg"><path d="M70.4 20a8.7 8.7 0 00-6-6.2c-5.4-1.3-26.9-1.3-26.9-1.3s-21.5 0-26.9 1.4a8.7 8.7 0 00-6 6.3 90.6 90.6 0 000 33.2 8.7 8.7 0 006 6c5.4 1.4 26.9 1.4 26.9 1.4s21.5 0 26.9-1.4a8.7 8.7 0 006-6.3 90.6 90.6 0 000-33v0z" stroke="#000" stroke-width="2" stroke-linecap="round" stroke-linejoin="round"/><path d="M30.5 47l18-10.3-18-10.2v20.4z" stroke="#000" stroke-width="2" stroke-linecap="round" stroke-linejoin="round"/></svg>