<svg width="67" height="20" viewBox="0 0 67 20" fill="none" xmlns="http://www.w3.org/2000/svg"><path fill="#2DC6ED" d="M0 0h67v20H0z"/><path d="M7.7 14.2a539.4 539.4 0 00-2.2-7 .9.9 0 00-.5-.1V6.3a27 27 0 011.5 0 21 21 0 002-.1V7l-.6.1-.2.1-.1.3.5 2.2.6 2.8H9A46.4 46.4 0 0010.3 7h-1v-.9a33.3 33.3 0 003.2 0v.9l-.5.1-.2.5-2.2 6.2-2 .3zm8.5 0c-.3 0-.6-.1-.8-.3a1 1 0 01-.4-.7 6 6 0 01-.8.6l-.6.3c-.5 0-.9-.2-1.2-.5-.3-.3-.4-.7-.4-1.2l.1-.7c.2-.2.3-.3.6-.3l2.3-.6v-.3c0-.3-.1-.6-.3-.8a1 1 0 00-.8-.3l-.7.2-.7.4-.3-.8 1.3-.6 1-.3c.6 0 1 .2 1.4.5.4.3.5.7.5 1.2v1l-.2 1.4.1.4.3.1h.3l.3-.2.2.3-.6.7c-.2.2-.4.4-.6.4zM14 13l.5-.1.4-.3v-1.1l-1.2.3c-.2 0-.3.2-.3.4s0 .4.2.6l.4.2zm3.7.4l.4-.2.2-.3V6.8v-.4l-.3-.2h-.5v-.7L20 5v.2l-.2 2.5a108.8 108.8 0 000 5.4H20.4V14H20a30.7 30.7 0 00-2.4.1l.1-.7zm3.3 0c.2 0 .4-.1.5-.3.1 0 .2-.2.2-.5V10l-.1-.5-.4-.1a1.2 1.2 0 00-.3 0v-.7a48 48 0 002.3-.4l.1.2-.2 1.5a46.1 46.1 0 000 3.1l.3.2h.4l-.1.7a11 11 0 00-2.2 0l-.6.1.1-.7zm1.3-6.1c-.3 0-.5 0-.6-.2a.9.9 0 01-.3-.6c0-.3.1-.6.3-.7.2-.2.4-.3.7-.3.2 0 .4 0 .6.2l.2.6c0 .3 0 .6-.3.7-.1.2-.4.3-.6.3zm7 6.8c-.7 0-1-.2-1.1-.8H28l-1.4.8c-.7 0-1.3-.2-1.7-.7-.4-.5-.6-1.1-.6-2 0-.5.1-1 .4-1.5.2-.5.6-.9 1-1.1a3 3 0 011.6-.5h.6V6.9v-.5l-.5-.1a1.3 1.3 0 00-.2 0v-.7a22.8 22.8 0 002.4-.4l.1.2a94.7 94.7 0 00-.3 7.5l.3.1h.3l.2-.1.3.2a3.4 3.4 0 01-.7.8l-.5.3zM27.2 13h.4a2 2 0 00.5-.4v-3a3 3 0 00-.4-.2h-.4a1 1 0 00-1 .4A2 2 0 0026 11c0 .6.1 1 .3 1.5.3.3.6.5 1 .5zm6.5 1.1c-.9 0-1.5-.2-2-.7-.5-.5-.8-1.2-.8-2 0-.6.2-1.1.4-1.6a2.8 2.8 0 012.5-1.5c1.3 0 2 .7 2 2v.7l-.2.2h-3.1c0 .6.1 1 .4 1.3.2.3.6.5 1.1.5.4 0 .9-.1 1.4-.4h.1l.2.7-1 .6c-.4.2-.8.2-1 .2zm.4-3.7h.2V10c0-.5-.2-.8-.7-.8a1 1 0 00-.8.3c-.2.2-.3.5-.3 1l1.6-.2zm2.6 3l.5-.3.1-.6V10v-.6l-.5-.1h-.2v-.7a45.2 45.2 0 002.1-.4l.2.1a7.2 7.2 0 00-.2 1.1l.1.1.8-.9a1.5 1.5 0 011.3-.3v.1a22.3 22.3 0 00-.2 2.2h-.8V10l-.3-.2c-.1 0-.3 0-.4.2l-.4.4a47 47 0 010 2.7l.4.1a5.4 5.4 0 00.6 0l-.1.8a40.1 40.1 0 00-3 0v-.7z" fill="#051212"/><path d="M62.3 1.7l-9.1 9.1M62.3 1.7l-5.8 16.6-3.3-7.5-7.5-3.3 16.6-5.8z" stroke="#051212" stroke-width="2" stroke-linecap="round" stroke-linejoin="round"/></svg>